<svg xmlns="http://www.w3.org/2000/svg" viewBox="0 0 512 512"><path d="M337.556 189.252l-5.023 29.292c-.774 4.498 1.039 8.957 4.723 11.628a11.805 11.805 0 006.99 2.273c1.922 0 3.836-.474 5.532-1.366l26.311-13.831 26.297 13.826a11.93 11.93 0 005.544 1.372 11.84 11.84 0 006.988-2.269c3.69-2.682 5.503-7.139 4.729-11.627l-5.024-29.297 21.284-20.748c3.267-3.185 4.419-7.858 3.008-12.181a11.809 11.809 0 00-9.597-8.094l-29.416-4.275-13.156-26.66a11.815 11.815 0 00-10.656-6.62c-4.561 0-8.646 2.54-10.659 6.626l-13.157 26.655-29.415 4.275c-4.506.654-8.182 3.752-9.598 8.092-1.406 4.33-.255 8.996 3.009 12.185l21.286 20.744zm21.26-29.879a8.101 8.101 0 006.1-4.431l11.173-22.637 11.171 22.636a8.094 8.094 0 006.099 4.431l24.984 3.631-18.077 17.621a8.104 8.104 0 00-2.33 7.169l4.267 24.881-22.345-11.748a8.098 8.098 0 00-7.54.002l-22.344 11.746 4.266-24.88a8.1 8.1 0 00-2.329-7.17l-18.079-17.62 24.984-3.631z"/><path d="M445.893 429.493a231.26 231.26 0 01-24.864 1.355c-54.194 0-106.705-19.349-147.862-54.483a8.1 8.1 0 00-10.517 12.322c44.087 37.636 100.334 58.363 158.379 58.363.631 0 1.264-.003 1.896-.008-41.552 31.591-92.19 48.759-144.94 48.759-132.226 0-239.8-107.575-239.8-239.801 0-127.344 99.772-231.821 225.252-239.364-54.546 46.16-86.47 114.161-86.47 186.354 0 62.645 23.698 122.196 66.728 167.687a8.1 8.1 0 0011.769-11.133c-40.173-42.469-62.297-98.068-62.297-156.554 0-75.138 37.048-145.42 99.105-188.005a8.102 8.102 0 00-4.27-14.773A259.211 259.211 0 00277.986 0c-68.382 0-132.669 26.629-181.02 74.98-48.352 48.352-74.98 112.639-74.98 181.019s26.628 132.668 74.98 181.019C145.317 485.371 209.605 512 277.986 512c64.888 0 126.787-24.335 174.296-68.523a8.097 8.097 0 001.851-9.297 8.095 8.095 0 00-8.24-4.687z"/><path d="M327.465 325.24c0 18.137 14.757 32.893 32.895 32.893 18.137 0 32.893-14.756 32.893-32.893 0-18.138-14.756-32.894-32.893-32.894-18.138 0-32.895 14.756-32.895 32.894zm49.588 0c0 9.205-7.489 16.693-16.693 16.693-9.206 0-16.695-7.489-16.695-16.693s7.49-16.694 16.695-16.694 16.693 7.488 16.693 16.694zM472.699 256.002c-9.561 0-17.313 7.75-17.313 17.314 0 9.563 7.751 17.315 17.313 17.315 9.565 0 17.315-7.752 17.315-17.315 0-9.565-7.75-17.314-17.315-17.314z" fill="white"/></svg>