<svg xmlns="http://www.w3.org/2000/svg" viewBox="0 0 512 512"><path d="M326.4 44.8c-10.605 0-19.2 8.596-19.2 19.2v12.8c0 10.604 8.595 19.2 19.2 19.2 10.602 0 19.2-8.596 19.2-19.2V64c0-10.604-8.598-19.2-19.2-19.2zM422.4 230.4c0-52.934-43.066-96-96-96-20.945 0-40.852 6.629-57.571 19.172-10.115 7.589-18.657 17.195-25.083 28.035a121.484 121.484 0 00-45.348-8.755c-65.188 0-118.56 51.56-121.472 116.042C33.499 295.066 0 332.494 0 377.6c0 49.407 40.195 89.6 89.6 89.6h224c59.992 0 108.8-48.808 108.8-108.8 0-24.882-8.415-47.823-22.523-66.173 14.486-17.124 22.523-38.792 22.523-61.827zM313.6 428.8h-224c-28.23 0-51.2-22.968-51.2-51.2s22.97-51.2 51.2-51.2H96c10.605 0 19.2-8.596 19.2-19.2v-12.749c0-45.878 37.325-83.2 83.2-83.2 37.97 0 71.1 25.637 80.567 62.344A19.202 19.202 0 00297.559 288H313.6c38.82 0 70.4 31.581 70.4 70.4s-31.58 70.4-70.4 70.4zm57.843-162.484c-16.77-10.572-36.595-16.716-57.843-16.716h-2.132c-7.541-19.06-19.654-35.523-34.843-48.269 10.13-17.464 28.82-28.531 49.775-28.531 31.761 0 57.6 25.838 57.6 57.6 0 13.297-4.475 25.83-12.557 35.916zM492.8 211.2H480c-10.605 0-19.2 8.596-19.2 19.2s8.595 19.2 19.2 19.2h12.8c10.602 0 19.2-8.596 19.2-19.2s-8.598-19.2-19.2-19.2zM457.637 99.159c-7.497-7.496-19.654-7.496-27.153.003l-9.05 9.051c-7.497 7.498-7.497 19.656.003 27.154a19.136 19.136 0 0013.574 5.623c4.913 0 9.828-1.875 13.577-5.626l9.05-9.051c7.5-7.5 7.5-19.657-.001-27.154zM231.364 108.211l-9.05-9.05c-7.5-7.497-19.654-7.498-27.155 0-7.497 7.497-7.497 19.653 0 27.153l9.051 9.05a19.14 19.14 0 0013.577 5.626c4.913 0 9.828-1.875 13.574-5.624 7.5-7.498 7.5-19.654.003-27.155z" fill="white"/></svg>