<svg xmlns="http://www.w3.org/2000/svg" style="isolation:isolate" width="514.451" height="512"><path d="M513.493 305.414a12.578 12.578 0 00-9.963-7.654c-40.949-5.434-76.186-32.467-91.962-70.551-15.775-38.085-9.976-82.12 15.137-114.917a12.572 12.572 0 00-8.328-20.11c-24.497-3.254-49.54.037-72.417 9.512-43.268 17.922-73.74 55.202-83.634 99.002-20.043-22.638-49.579-36.649-81.286-36.649-59.245 0-107.445 47.246-107.445 105.317 0 .205 0 .407.002.612-39.739 2.989-71.146 35.674-71.146 75.422 0 41.708 34.581 75.639 77.088 75.639H286.34c37.259 0 69.717-20.509 86.269-50.615 9.123 1.822 18.308 2.745 27.473 2.745 18.282 0 36.47-3.622 53.844-10.818 22.877-9.477 42.909-24.857 57.934-44.479a12.57 12.57 0 001.633-12.456zm-227.155 90.473H79.539c-28.639 0-51.938-22.65-51.938-50.489 0-27.841 23.299-50.493 51.938-50.493 1.767 0 3.733.132 6.18.419a12.553 12.553 0 0010.478-3.726 12.574 12.574 0 003.425-10.579c-.581-3.989-.877-7.911-.877-11.655 0-44.204 36.917-80.167 82.295-80.167 35.993 0 68.312 23.377 78.736 56.888.134.471.297.929.483 1.375 2.188 5.421 7.879 8.68 13.734 7.688a74.787 74.787 0 0112.345-1.025c40.138 0 72.791 31.798 72.791 70.881 0 39.085-32.653 70.883-72.791 70.883zM444.3 339.113c-20.074 8.315-41.455 10.802-62.528 7.401a94.1 94.1 0 002.509-21.508c0-52.953-43.937-96.031-97.941-96.031-.765 0-1.529.052-2.294.068 1.09-45.499 28.678-86.358 71.54-104.111a115.944 115.944 0 0138.766-8.683c-19.711 36.918-22.274 81.342-6.017 120.586 16.253 39.239 49.482 68.841 89.521 81.008a116.021 116.021 0 01-33.556 21.27z" fill="white"/></svg>