<svg xmlns="http://www.w3.org/2000/svg" width="512" height="512"><path d="M320 128c52.562 0 95.375 42.438 96 94.813-.25 1.938-.438 3.875-.5 5.875l-.812 23.5 22.25 7.75C462.688 268.906 480 293.062 480 320c0 35.312-28.688 64-64 64H96c-35.281 0-64-28.688-64-64 0-34.938 28.188-63.438 63-64 1.5.219 3.063.406 4.625.5l24.313 1.594 8-22.969C140.938 209.313 165.063 192 192 192c3.125 0 6.563.375 11.188 1.188l22.406 4.031 11.156-19.844C253.875 146.938 285.75 128 320 128m0-32c-47.938 0-89.219 26.688-111.156 65.688C203.375 160.719 197.781 160 192 160c-41.938 0-77.219 27.063-90.281 64.563-1.906-.125-3.75-.563-5.719-.563-53 0-96 43-96 96s43 96 96 96h320c53 0 96-43 96-96 0-41.938-27.062-77.25-64.562-90.313.062-1.937.562-3.749.562-5.687 0-70.687-57.312-128-128-128z" fill="white"/></svg>