<svg xmlns="http://www.w3.org/2000/svg" style="isolation:isolate" width="512" height="512"><path d="M431.401 141.55c.588-5 1.149-10.791 1.149-15.038C432.55 56.752 376.363 0 307.313 0c-43.95 0-84.497 23.428-107.039 60.81-13.993-9.68-30.547-14.873-47.858-14.873-46.889 0-85.039 38.541-85.039 85.914 0 5.212.476 10.41 1.385 15.514-40.264 14.736-67.468 53.3-67.468 97.557 0 56.323 44.186 98.786 102.788 98.786h294.239c56.677 0 102.788-46.573 102.788-103.819.005-44.492-28.733-84.215-69.708-98.339zm-33.075 178.396H104.082c-45.193 0-79.266-32.265-79.266-75.029 0-37.288 25.019-69.313 60.843-77.905a11.69 11.69 0 007.58-5.787 12.024 12.024 0 00.866-9.562c-2.128-6.356-3.201-13.013-3.201-19.812 0-34.27 27.594-62.133 61.502-62.133 16.295 0 31.662 6.375 43.254 17.947 2.74 2.717 6.624 3.969 10.405 3.216 3.795-.687 6.991-3.239 8.583-6.756 16.459-36.658 52.844-60.34 92.66-60.34 56.074 0 101.701 46.07 101.701 102.727 0 5.829-1.643 17.712-2.269 21.799-.956 6.205 2.999 12.086 9.044 13.456 35.81 8.102 61.813 40.951 61.813 78.122-.009 44.139-35.556 80.057-79.271 80.057zm-266.141 56.813c-6.46-.89-12.387 3.62-13.296 10.108l-7.853 56.135c-.904 6.493 3.583 12.515 10.005 13.437.565.076 1.12.099 1.666.099 5.777 0 10.805-4.265 11.644-10.202l7.839-56.135c.908-6.493-3.583-12.51-10.005-13.442zm81.38 0c-6.46-.89-12.387 3.62-13.296 10.108L184.577 498.45c-.909 6.493 3.569 12.514 9.991 13.437.565.099 1.12.113 1.671.113 5.767 0 10.796-4.27 11.634-10.198l15.692-111.587c.909-6.507-3.559-12.496-10-13.456zm84.29 0c-6.451-.89-12.406 3.62-13.31 10.108L268.867 498.45c-.923 6.493 3.554 12.514 9.986 13.437.569.099 1.115.113 1.666.113 5.768 0 10.805-4.27 11.634-10.198l15.688-111.587c.908-6.507-3.56-12.496-9.986-13.456zm81.37 0c-6.483-.89-12.387 3.62-13.296 10.108l-7.853 56.135c-.894 6.493 3.578 12.515 10.014 13.437.551.076 1.102.099 1.653.099 5.782 0 10.805-4.265 11.648-10.202l7.844-56.135c.894-6.493-3.593-12.51-10.01-13.442z" fill="white"/></svg>