<svg xmlns="http://www.w3.org/2000/svg" style="isolation:isolate" width="512" height="512"><path d="M98.59 402.715c-6.313-.835-12.242 3.598-13.144 10.021l-6.023 43.167c-.893 6.451 3.536 12.432 9.901 13.343a12.84 12.84 0 001.643.114c5.691 0 10.68-4.258 11.501-10.149l6.014-43.167c.893-6.451-3.536-12.403-9.892-13.329zm62.382 0c-6.323-.897-12.237 3.57-13.153 10.021l-12.024 85.812c-.892 6.451 3.527 12.422 9.883 13.333.56.1 1.106.119 1.657.119 5.691 0 10.68-4.244 11.496-10.125l12.024-85.831c.902-6.422-3.527-12.403-9.883-13.329zm64.594 0c-6.356-.897-12.261 3.57-13.153 10.021l-12.024 85.812c-.902 6.451 3.513 12.422 9.883 13.333.546.1 1.106.119 1.642.119 5.701 0 10.681-4.244 11.511-10.125l12.024-85.831c.892-6.422-3.527-12.403-9.883-13.329zm62.358 0c-6.332-.835-12.251 3.598-13.148 10.021l-6.01 43.167c-.906 6.451 3.522 12.432 9.883 13.343.56.071 1.101.114 1.642.114 5.701 0 10.69-4.258 11.516-10.149l6.014-43.167c.897-6.451-3.541-12.403-9.897-13.329zm129.99-231.931c-9.199-52.694-58.954-87.953-110.931-78.668-18.954 3.394-35.957 12.208-49.633 25.594-7.514-1.946-15.346-3.09-23.449-3.09-32.297 0-62.168 16.737-79.536 43.642-10.201-6.356-21.987-9.764-34.248-9.764-36.095 0-65.453 29.767-65.453 66.336 0 3.19.213 6.356.655 9.474-29.468 11.91-49.205 40.832-49.205 73.884 0 43.228 33.74 75.848 78.487 75.848h216.168c43.271 0 78.483-35.696 78.483-79.575 0-8.681-1.457-17.116-4.092-25.063 32.141-20.838 49.523-59.851 42.754-98.618zM300.769 350.477H84.601c-31.49 0-55.223-22.476-55.223-52.285 0-26.074 17.425-48.479 42.379-54.484a11.65 11.65 0 007.5-5.739 12.05 12.05 0 00.859-9.503c-1.467-4.357-2.188-8.952-2.188-13.642 0-23.572 18.93-42.763 42.189-42.763 11.178 0 21.711 4.381 29.676 12.36 2.701 2.687 6.546 3.902 10.277 3.19 3.75-.693 6.916-3.214 8.487-6.712 11.606-25.931 37.263-42.692 65.344-42.692 39.56 0 71.733 32.596 71.733 72.692 0 3.659-.992 11.33-1.647 15.593-.954 6.142 2.967 11.976 8.943 13.333 24.949 5.692 43.068 28.671 43.068 54.645 0 30.887-24.774 56.007-55.229 56.007zm63.735-102.155c-8.948-12.683-21.46-22.732-36.213-28.371.332-3.143.593-6.432.593-9.048 0-35.425-19.02-66.359-47.197-83.082a71.26 71.26 0 0129.345-12.465c39.421-7.097 77.03 19.642 83.974 59.548 5.008 28.571-7.362 57.355-30.502 73.418zm-40.67-191.631h.071c6.427-.053 11.591-5.36 11.558-11.886l-.214-33.095C335.197 5.24 330.004 0 323.62 0h-.076c-6.427.047-11.596 5.359-11.563 11.881l.213 33.095c.053 6.479 5.241 11.715 11.64 11.715zm170.423 131.95h-.091l-32.653.214c-6.427.052-11.591 5.359-11.558 11.857.052 6.503 5.24 11.715 11.63 11.715h.076l32.662-.214c6.427-.047 11.596-5.359 11.563-11.857-.047-6.498-5.236-11.715-11.629-11.715zM427.963 98.88c3 0 6-1.163 8.269-3.522l22.946-23.549c4.514-4.623 4.457-12.095-.104-16.666a11.5 11.5 0 00-16.439.095L419.694 78.81c-4.523 4.624-4.476 12.095.095 16.666a11.555 11.555 0 008.174 3.404zm-224.669-3.522a11.436 11.436 0 008.274 3.522 11.53 11.53 0 008.169-3.408c4.581-4.572 4.619-12.043.104-16.666L196.9 55.233a11.504 11.504 0 00-16.438-.095c-4.571 4.572-4.618 12.043-.104 16.666l22.936 23.554zm220.141 193.24c-4.514-4.647-11.891-4.689-16.438-.099-4.586 4.576-4.624 12.023-.105 16.67l22.946 23.573a11.495 11.495 0 008.269 3.498c2.953 0 5.905-1.115 8.169-3.403 4.581-4.571 4.619-12.024.105-16.671l-22.946-23.568z" fill="white"/></svg>