<svg xmlns="http://www.w3.org/2000/svg" style="isolation:isolate" width="512" height="512"><path d="M114.55 396.017c-6.772-.889-13.164 3.792-14.129 10.654l-6.468 45.817c-.964 6.833 3.802 13.163 10.631 14.138.594.099 1.179.118 1.763.118 6.135 0 11.486-4.505 12.375-10.754l6.454-45.821a12.511 12.511 0 00-10.626-14.152zm67.039 0c-6.81-.951-13.168 3.792-14.138 10.626l-12.921 91.081c-.979 6.863 3.778 13.178 10.617 14.157.598.071 1.192.119 1.777.119 6.111 0 11.462-4.505 12.361-10.759l12.921-91.082c.969-6.824-3.773-13.163-10.617-14.142zm69.426 0c-6.791-.951-13.169 3.792-14.133 10.626l-12.922 91.081c-.979 6.863 3.778 13.178 10.617 14.157.594.071 1.178.119 1.772.119 6.117 0 11.468-4.505 12.366-10.759l12.921-91.082c.974-6.824-3.783-13.163-10.621-14.142zm67.016 0c-6.777-.889-13.168 3.792-14.124 10.654l-6.453 45.817c-.984 6.833 3.792 13.163 10.612 14.138.598.099 1.178.118 1.777.118 6.126 0 11.477-4.505 12.365-10.754l6.454-45.821c.969-6.858-3.788-13.173-10.631-14.152zm163.748-277.441c0-.57-.029-1.14-.071-1.687a12.556 12.556 0 00-8.407-11.633 12.497 12.497 0 00-13.786 3.93c-12.774 15.687-31.679 24.697-51.833 24.697-36.863 0-66.864-30.034-66.864-66.935 0-17.046 6.487-33.328 18.244-45.84 3.612-3.816 4.434-9.486 2.077-14.21-2.367-4.695-7.499-7.48-12.622-6.795C285.606 7.521 243.35 51.76 243.35 110.231c0 .775.095 1.526.228 2.267-28.105 2.562-53.558 17.759-68.998 40.836-9.818-5.817-21.062-8.915-32.753-8.915-35.613 0-64.602 29.031-64.602 64.692 0 2.79.167 5.555.523 8.269-28.504 11.805-47.527 39.643-47.527 71.44 0 42.053 33.204 73.76 77.233 73.76h209.28c42.584 0 77.228-34.687 77.228-77.309 0-18.43-6.71-35.733-17.93-49.295 58.391-10.303 105.747-60.739 105.747-117.4zM316.724 337.54H107.445c-29.773 0-52.227-20.947-52.227-48.724 0-24.36 16.485-45.265 40.099-50.892a12.44 12.44 0 008.041-6.126c1.706-3.055 2.029-6.719.903-10.06-1.345-4.002-2.039-8.269-2.039-12.632 0-21.86 17.759-39.667 39.596-39.667 10.488 0 20.392 4.078 27.853 11.491 2.903 2.861 7.028 4.173 11.058 3.384a12.514 12.514 0 009.129-7.128c11.035-24.36 35.424-40.095 62.131-40.095 37.6 0 68.185 30.604 68.185 68.242 0 3.436-.964 10.849-1.558 14.737a12.519 12.519 0 009.604 14.157c23.599 5.289 40.736 26.769 40.736 51.034.01 28.827-23.424 52.279-52.232 52.279zm37.514-124.641c-2.276 0-4.391.66-6.23 1.725-1.093-.495-2.176-1.003-3.293-1.445.271-2.737.475-5.551.475-7.841 0-46.021-33.498-84.253-77.343-91.818.295-1.055.495-2.143.495-3.289 0-35.751 20.938-64.692 54.341-78.065a91.388 91.388 0 00-6.852 34.777c0 50.702 41.221 91.965 91.87 91.965 15.464 0 30.376-3.839 43.588-10.987-14.1 36.901-53.444 64.978-97.051 64.978z" fill="white"/></svg>