<svg xmlns="http://www.w3.org/2000/svg" style="isolation:isolate" width="512" height="512"><path d="M411.247 145.67c-5.296-72.883-68.404-130.613-145.209-130.613-60.931 0-114.627 36.029-136.05 90.432-1.489-.054-2.99-.079-4.499-.079C56.295 105.407 0 161.701 0 230.899c0 69.198 56.295 125.492 125.492 125.492h18.241l-2.497 6.383a10.048 10.048 0 001.059 9.319 10.052 10.052 0 008.294 4.378h100.392v110.432a10.04 10.04 0 0010.038 10.04c3.814 0 7.382-2.176 9.068-5.735l64.183-135.321c.822.217 1.622.507 2.515.507 24.95 0 74.814-.127 75.304-.144C468.107 353.367 512 307.127 512 250.981c.003-56.567-44.779-102.867-100.753-105.311zM271.058 442.307v-75.879c.003-5.543-4.487-10.04-10.037-10.04h-95.727l65.608-167.658v107.667c0 5.544 4.49 10.04 10.04 10.04h94.559l-64.443 135.87zm140.485-106.125s-41.804.107-67.987.127l16.887-35.604a10.018 10.018 0 00-.589-9.671 10.023 10.023 0 00-8.48-4.671H250.981V135.524c0-4.829-3.432-8.97-8.176-9.863-4.746-.901-9.451 1.712-11.216 6.205l-79.998 204.44-24.472-.009-1.627.009c-58.127 0-105.412-47.288-105.412-105.413 0-58.124 47.285-105.412 105.412-105.412 3.5 0 6.971.172 10.392.504 4.617.481 9.04-2.374 10.51-6.842 16.597-50.247 64.687-84.012 119.647-84.012 69.198 0 125.492 54.045 125.492 120.472 0 5.442 4.333 9.894 9.776 10.034 1.236.026 2.449.02 3.685.014l1.599-.011c47.049 0 85.333 38.279 85.333 85.333 0 45.455-35.522 82.886-80.383 85.209z" fill="white"/></svg>